<?xml version="1.0" encoding="UTF-8" standalone="no"?>
<svg
   xml:space="preserve"
   width="631.10193"
   height="425"
   version="1.1"
   style="clip-rule:evenodd;fill-rule:evenodd;image-rendering:optimizeQuality;shape-rendering:geometricPrecision;text-rendering:geometricPrecision"
   viewBox="0 0 6574.0346 4427.2333"
   id="svg92"
   sodipodi:docname="DiretoDaUFF-Logo.svg"
   inkscape:version="1.2.1 (9c6d41e410, 2022-07-14)"
   inkscape:export-filename="C:\Users\cosme\cosmefc@id.uff.br\STI\UFF\IdentidadeSTI\Mobile\STI-Mobile.png"
   inkscape:export-xdpi="150"
   inkscape:export-ydpi="150"
   xmlns:inkscape="http://www.inkscape.org/namespaces/inkscape"
   xmlns:sodipodi="http://sodipodi.sourceforge.net/DTD/sodipodi-0.dtd"
   xmlns="http://www.w3.org/2000/svg"
   xmlns:svg="http://www.w3.org/2000/svg"
   xmlns:rdf="http://www.w3.org/1999/02/22-rdf-syntax-ns#"
   xmlns:cc="http://creativecommons.org/ns#"
   xmlns:dc="http://purl.org/dc/elements/1.1/"><metadata
   id="metadata96"><rdf:RDF><cc:Work
       rdf:about=""><dc:format>image/svg+xml</dc:format><dc:type
         rdf:resource="http://purl.org/dc/dcmitype/StillImage" /></cc:Work></rdf:RDF></metadata><sodipodi:namedview
   pagecolor="#ffffff"
   bordercolor="#666666"
   borderopacity="1"
   objecttolerance="10"
   gridtolerance="10"
   guidetolerance="10"
   inkscape:pageopacity="0"
   inkscape:pageshadow="2"
   inkscape:window-width="1366"
   inkscape:window-height="745"
   id="namedview94"
   showgrid="false"
   fit-margin-top="0"
   fit-margin-left="0"
   fit-margin-right="0"
   fit-margin-bottom="0"
   inkscape:zoom="0.72731462"
   inkscape:cx="241.98606"
   inkscape:cy="270.8594"
   inkscape:window-x="-8"
   inkscape:window-y="194"
   inkscape:window-maximized="1"
   inkscape:current-layer="g25573"
   inkscape:snap-perpendicular="true"
   inkscape:snap-tangential="true"
   showguides="true"
   inkscape:guide-bbox="true"
   inkscape:object-paths="true"
   inkscape:snap-intersection-paths="true"
   inkscape:snap-bbox="true"
   inkscape:snap-smooth-nodes="true"
   inkscape:snap-midpoints="true"
   inkscape:snap-object-midpoints="true"
   inkscape:snap-center="true"
   units="px"
   inkscape:document-rotation="0"
   inkscape:showpageshadow="2"
   inkscape:pagecheckerboard="0"
   inkscape:deskcolor="#d1d1d1" />
 <defs
   id="defs4">
  <style
   type="text/css"
   id="style2">
   <![CDATA[
    .fil1 {fill:#373435}
    .fil0 {fill:#235CA3}
   ]]>
  </style>
 
  
  
  
  
  
  
  
  
  
  
  
  
  
  
  
  
  
  
  
  
  
  
  
  
  
  
  
  
  
  
  
  
  
  
  
  
  
  
  
  
  
  
  
 </defs>
 

<g
   id="g25573"
   transform="translate(131.74402,179.81076)"><g
     id="g27076"><g
       aria-label="Direto
da"
       transform="scale(1.0658766,0.93819491)"
       id="text848"
       style="font-size:1453.56px;line-height:0.7;fill:#6d6e71;stroke-width:36.339"><path
         d="m 454.8978,31.228839 q 102.91318,0 193.05094,39.036037 93.68649,41.165274 158.27339,105.752174 67.42588,68.84537 105.75217,158.27338 39.03603,92.267 39.03603,193.05095 0,102.91319 -39.03603,193.05094 -41.16528,93.68649 -105.75217,158.27339 -66.00639,65.29664 -158.27339,105.04243 -92.267,39.74576 -193.05094,39.74576 h -81.62081 l 25.55086,-289.5764 h 56.06995 q 85.87928,0 146.2077,-60.32842 60.32842,-60.32842 60.32842,-146.2077 0,-85.87928 -60.32842,-146.2077 -60.32842,-60.32842 -146.2077,-60.32842 H 351.98461 L 290.23669,1023.4539 H -0.04946911 L 86.539558,31.228839 Z"
         style="font-family:UFF;-inkscape-font-specification:UFF;text-align:center;text-anchor:middle"
         id="path27049" /><path
         d="m 1293.8177,315.83703 v 707.61687 h -265.445 V 315.83703 Z M 1161.8049,1.001358e-5 q 53.9407,0 92.9768,38.32629098642 39.7458,37.616544 39.7458,89.428009 0,55.3602 -37.6166,90.84751 -36.9068,35.4873 -95.106,35.4873 -58.1991,0 -95.8157,-35.4873 -36.9068,-35.48731 -36.9068,-90.84751 0,-51.811465 39.0361,-89.428009 Q 1107.8642,1.001358e-5 1161.8049,1.001358e-5 Z"
         style="font-family:UFF;-inkscape-font-specification:UFF;text-align:center;text-anchor:middle"
         id="path27051" /><path
         d="m 1838.193,308.73957 v 283.89845 q -27.6801,-15.61441 -50.3919,-15.61441 -72.3941,0 -72.3941,110.72039 v 335.7099 H 1449.9619 V 636.64228 q 0,-153.30516 83.75,-244.15266 83.7501,-91.55725 223.5701,-91.55725 31.2288,0 80.911,7.8072 z"
         style="font-family:UFF;-inkscape-font-specification:UFF;text-align:center;text-anchor:middle"
         id="path27053" /><path
         d="m 2611.8162,712.58512 h -402.426 q -9.2267,-30.51909 -9.2267,-56.06995 0,-35.4873 12.7754,-69.55512 h 134.8517 q -14.1949,-78.78182 -88.7182,-78.78182 -49.6822,0 -80.9111,42.58477 -31.2288,41.87502 -31.2288,107.88141 0,68.84538 29.8093,111.43014 30.5191,42.58477 79.4916,42.58477 39.7458,0 76.6526,-39.74578 l 151.1759,181.695 q -105.7522,83.04026 -234.926,83.04026 -157.5636,0 -264.7353,-105.75213 Q 1877.229,826.1445 1877.229,670.00035 q 0,-155.4344 107.8814,-262.60607 108.5911,-107.17166 266.1548,-107.17166 154.0149,0 258.3476,105.04243 105.0424,104.33268 105.0424,257.63784 0,15.61441 -2.839,49.68223 z"
         style="font-family:UFF;-inkscape-font-specification:UFF;text-align:center;text-anchor:middle"
         id="path27055" /><path
         d="M 2958.1725,54.650461 V 325.77348 h 119.2373 V 606.1232 h -119.2373 q 0,84.45979 26.2606,116.39836 26.9703,31.93858 97.9449,31.93858 v 278.93026 q -20.5826,0.7097 -30.519,0.7097 -90.1378,0 -170.3391,-41.87501 -79.4916,-41.87502 -127.7543,-113.55938 -61.0382,-91.55725 -61.0382,-242.73317 V 54.650461 Z"
         style="font-family:UFF;-inkscape-font-specification:UFF;text-align:center;text-anchor:middle"
         id="path27057" /><path
         d="m 3543.713,300.93237 q 150.4661,0 257.6378,108.59115 107.8814,107.88141 107.8814,259.05734 0,153.30516 -109.3009,261.18657 -108.5911,107.88137 -262.6061,107.88137 -154.0149,0 -263.3158,-107.88137 -109.3009,-108.59116 -109.3009,-261.18657 0,-155.4344 109.3009,-261.18658 109.3009,-106.46191 269.7036,-106.46191 z m -7.0975,261.89632 q -42.5848,0 -72.3941,31.22882 -29.8093,30.51909 -29.8093,75.23309 0,44.00426 29.8093,75.23309 30.5191,31.22883 72.3941,31.22883 42.5848,0 72.3941,-31.22883 30.5191,-31.22883 30.5191,-75.23309 0,-44.714 -29.8094,-75.23309 -29.8093,-31.22882 -73.1038,-31.22882 z"
         style="font-family:UFF;-inkscape-font-specification:UFF;text-align:center;text-anchor:middle"
         id="path27059" /><path
         d="m 1636.6251,1085.7245 h 265.445 v 589.799 q 0,162.5319 -85.1695,264.7353 -48.9725,58.909 -124.9153,93.6865 -75.2331,34.7776 -154.7247,34.7776 -158.2734,0 -266.8645,-106.4619 -108.5912,-106.4619 -108.5912,-261.1866 0,-149.7564 107.8814,-259.0573 107.8815,-109.3009 255.5086,-109.3009 23.4217,0 70.9747,4.2584 V 1629.39 q -32.6484,-25.5508 -65.2967,-25.5508 -41.1653,0 -70.9746,30.5191 -29.0996,29.8093 -29.0996,72.3941 0,41.1652 30.5191,70.9746 30.5191,29.0996 73.1038,29.0996 102.2035,0 102.2035,-141.2395 z"
         style="font-family:UFF;-inkscape-font-specification:UFF;text-align:center;text-anchor:middle"
         id="path27061" /><path
         d="m 2435.0895,1789.0829 v 274.6718 q -32.6484,5.6779 -59.6187,5.6779 -159.6929,0 -266.1548,-105.0424 -106.4619,-105.0424 -106.4619,-263.3158 0,-154.0149 107.1716,-261.1866 107.8814,-107.1716 261.8964,-107.1716 171.7585,0 270.4132,100.7839 99.3645,100.0742 99.3645,273.962 v 347.0659 h -265.4451 v -327.9027 q 0,-56.07 -27.6801,-89.4281 -26.9703,-33.358 -73.1038,-33.358 -41.875,0 -72.3941,30.5191 -30.5191,30.519 -30.5191,72.3941 0,44.0042 27.6801,72.3941 27.6801,28.3898 70.2649,28.3898 34.7775,0 64.5869,-18.4534 z"
         style="font-family:UFF;-inkscape-font-specification:UFF;text-align:center;text-anchor:middle"
         id="path27063" /></g><path
       sodipodi:nodetypes="cccccccccccccccccccccccccccccccsscccccccccccccc"
       id="path22"
       style="fill:#005baa;fill-opacity:1;fill-rule:evenodd;stroke:none;stroke-width:52.8491"
       d="m 2426.6822,2663.2864 h 348.594 v -183.5456 h -1.1628 c 0,-288.3814 -231.5451,-516.8131 -520.2488,-516.8131 -288.7164,0 -520.2485,231.8413 -520.2485,520.2483 0.7085,116.6754 0.3158,235.2806 0.3158,352.5578 H 1208.359 l -0.3272,711.6824 c 0,95.1404 -77.866,167.3209 -173.0288,167.3209 -94.10202,0 -172.02432,-72.3023 -172.02432,-167.3209 -0.091,-248.5436 -0.053,-498.9052 -0.053,-711.6824 -287.7856,-0.194 -574.8467,0 -862.97631479,0 v 347.339 H 516.12608 v 364.3434 h -0.053 c 0,286.2865 231.5245,520.1956 519.93152,520.1956 288.4994,0 522.9044,-231.5835 522.9044,-520.1956 0,-193.2894 0,-363.8678 0,-363.8678 h 175.0371 v 884.0634 h 346.0572 v -884.0634 h 695.4443 v 884.0634 h 348.2242 V 3183.5484 H 4166.7569 V 2835.7471 H 3123.6698 V 2486.413 c 0,-95.0759 77.7868,-173.1343 173.0288,-173.1343 95.3234,0 172.7248,78.7601 172.7248,173.927 0,57.6859 0,116.7479 0,174.9312 h 347.8939 v -175.0368 c 0,-288.6487 -232.4541,-524.0172 -520.9136,-524.0172 -288.6645,0 -519.2668,228.2983 -519.2668,516.6711 v 0.3169 h -1.6913 v 355.6759 h -695.4439 v -351.1969 c 0,-94.6519 79.3263,-173.9667 174.0326,-173.9667 94.7435,0 172.8842,79.3148 172.7381,173.9667 0,2.5368 -0.08,178.7495 -0.08,178.7495 z"
       inkscape:connector-curvature="0" /></g></g><path
   id="rect23397"
   style="fill:none;stroke:#005baa;stroke-width:52.0851;stroke-dasharray:none;stroke-opacity:1;paint-order:stroke fill markers;stop-color:#000000"
   d="M 25.989793,26.042549 V 4401.1908 H 4349.7243 C 4952.6951,3798.2246 5842.0961,2908.8327 6537.3187,2213.6167 5873.0465,1549.3475 4909.3086,585.62676 4349.7243,26.042549 Z"
   sodipodi:nodetypes="cccccc" /></svg>
