<?xml version="1.0" encoding="UTF-8" standalone="no"?>
<svg
   xml:space="preserve"
   width="410.8418"
   height="203.11133"
   version="1.1"
   style="clip-rule:evenodd;fill-rule:evenodd;image-rendering:optimizeQuality;shape-rendering:geometricPrecision;text-rendering:geometricPrecision"
   viewBox="0 0 4279.6386 2115.8146"
   id="svg92"
   sodipodi:docname="DiretoDaUFF-Logo.svg"
   inkscape:version="1.3 (0e150ed6c4, 2023-07-21)"
   inkscape:export-filename="C:\Users\cosme\cosmefc@id.uff.br\STI\UFF\IdentidadeSTI\Mobile\STI-Mobile.png"
   inkscape:export-xdpi="150"
   inkscape:export-ydpi="150"
   xmlns:inkscape="http://www.inkscape.org/namespaces/inkscape"
   xmlns:sodipodi="http://sodipodi.sourceforge.net/DTD/sodipodi-0.dtd"
   xmlns="http://www.w3.org/2000/svg"
   xmlns:svg="http://www.w3.org/2000/svg"
   xmlns:rdf="http://www.w3.org/1999/02/22-rdf-syntax-ns#"
   xmlns:cc="http://creativecommons.org/ns#"
   xmlns:dc="http://purl.org/dc/elements/1.1/"><metadata
   id="metadata96"><rdf:RDF><cc:Work
       rdf:about=""><dc:format>image/svg+xml</dc:format><dc:type
         rdf:resource="http://purl.org/dc/dcmitype/StillImage" /></cc:Work></rdf:RDF></metadata><sodipodi:namedview
   pagecolor="#ffffff"
   bordercolor="#666666"
   borderopacity="1"
   objecttolerance="10"
   gridtolerance="10"
   guidetolerance="10"
   inkscape:pageopacity="0"
   inkscape:pageshadow="2"
   inkscape:window-width="1920"
   inkscape:window-height="1057"
   id="namedview94"
   showgrid="false"
   fit-margin-top="0"
   fit-margin-left="0"
   fit-margin-right="0"
   fit-margin-bottom="0"
   inkscape:zoom="2.9135302"
   inkscape:cx="205.4209"
   inkscape:cy="101.42335"
   inkscape:window-x="1358"
   inkscape:window-y="-8"
   inkscape:window-maximized="1"
   inkscape:current-layer="svg92"
   inkscape:snap-perpendicular="true"
   inkscape:snap-tangential="true"
   showguides="true"
   inkscape:guide-bbox="true"
   inkscape:object-paths="true"
   inkscape:snap-intersection-paths="true"
   inkscape:snap-bbox="true"
   inkscape:snap-smooth-nodes="true"
   inkscape:snap-midpoints="true"
   inkscape:snap-object-midpoints="true"
   inkscape:snap-center="true"
   units="px"
   inkscape:document-rotation="0"
   inkscape:showpageshadow="2"
   inkscape:pagecheckerboard="0"
   inkscape:deskcolor="#d1d1d1" />&#10; <defs
   id="defs4">&#10;  <style
   type="text/css"
   id="style2">&#10;   <![CDATA[
    .fil1 {fill:#373435}
    .fil0 {fill:#235CA3}
   ]]>&#10;  </style>&#10; &#10;  &#10;  &#10;  &#10;  &#10;  &#10;  &#10;  &#10;  &#10;  &#10;  &#10;  &#10;  &#10;  &#10;  &#10;  &#10;  &#10;  &#10;  &#10;  &#10;  &#10;  &#10;  &#10;  &#10;  &#10;  &#10;  &#10;  &#10;  &#10;  &#10;  &#10;  &#10;  &#10;  &#10;  &#10;  &#10;  &#10;  &#10;  &#10;  &#10;  &#10;  &#10;  &#10;  &#10; </defs>&#10; &#10;&#10;<g
   id="g3"><path
     id="path108"
     style="color:#000000;clip-rule:nonzero;fill:#005baa;fill-opacity:1;fill-rule:nonzero;-inkscape-stroke:none;shape-rendering:auto"
     d="m 1708.4794,0 c -26.2594,0 -52.3845,0.6777 -78.3515,1.9938 -26.0929,1.3226 -51.9081,3.3083 -77.4359,5.9003 -25.5509,2.5943 -51.022,5.8086 -76.3982,9.6846 -25.264,3.8589 -50.3636,8.3568 -75.2589,13.4485 -24.9162,5.0959 -49.5819,10.7974 -73.9771,17.0701 -24.506,6.3012 -48.6955,13.1688 -72.5733,20.5899 -23.8849,7.4234 -47.5936,15.4333 -71.088,24.0283 -23.4271,8.5701 -46.589,17.7007 -69.4604,27.365 -22.8691,9.6633 -45.446,19.8737 -67.7309,30.6 -22.2683,10.7183 -44.2448,21.9521 -65.92019,33.7129 -21.739,11.795 -43.0937,24.0653 -64.0484,36.7851 -20.9549,12.7198 -41.631,25.9569 -61.9935,39.6946 -20.3675,13.7408 -40.3321,27.9307 -59.8775,42.5226 -19.5468,14.5928 -38.8029,29.6845 -57.7412,45.2896 -37.735,31.0931 -73.9428,63.9506 -108.5039,98.453 -34.5723,34.5136 -67.4756,70.6771 -98.6158,108.3411 -15.5037,18.7519 -30.6607,37.9455 -45.3913,57.5988 -14.7303,19.6528 -28.9466,39.6312 -42.6651,59.8978 -13.708,20.2512 -26.992,40.907 -39.8166,61.9732 -12.8253,21.0673 -25.1174,42.4033 -36.8665,63.9873 -11.8228,21.7197 -23.0702,43.6901 -33.7942,65.8999 -10.7238,22.2093 -20.9737,44.7999 -30.7018,67.7513 -9.723,22.9392 -18.8703,46.1086 -27.4464,69.4807 -8.6198,23.4911 -16.6565,47.1979 -24.1097,71.1084 -7.4678,23.9566 -14.3659,48.1819 -20.6712,72.6343 -6.302,24.4397 -12.0227,49.1091 -17.1312,74.0178 -1.184,5.7736 -2.0143,11.6792 -3.1332,17.477 H -0.05418853 v 716.6787 H 216.18031 l 0.1424,1.3225 h 620.0975 c 0.651,8.5112 1.5524,16.8489 2.2177,25.3508 -0.6522,-8.4529 -1.3115,-16.9032 -1.9735,-25.3508 h 113.7937 l -39.7556,-295.705 c -1.9976,-14.8626 -3.366,-24.9511 -3.9877,-31.1494 -1.6154,-16.1019 -2.8563,-32.56 -3.703,-49.4198 -0.8396,-16.7168 -1.2878,-33.9201 -1.3224,-51.5968 0.01,-27.9493 1.4219,-55.487 4.1708,-82.5426 2.7597,-27.1626 6.849,-53.8071 12.2075,-79.9791 5.3677,-26.2176 11.9925,-51.9495 19.8167,-77.0901 7.8193,-25.1245 16.8609,-49.7573 27.0599,-73.855 10.2037,-24.1088 21.5237,-47.5957 33.896,-70.3556 12.38039,-22.775 25.86079,-44.9229 40.38629,-66.4085 14.5013,-21.4505 30.0225,-42.1794 46.4696,-62.0952 16.4603,-19.9316 33.8574,-39.0577 52.1258,-57.3139 18.3056,-18.2931 37.4363,-35.6746 57.3343,-52.0851 19.8779,-16.3942 40.6195,-31.8813 62.1359,-46.4087 21.4677,-14.4942 43.6294,-27.9671 66.4289,-40.3456 22.7693,-12.3622 46.258,-23.6881 70.3555,-33.8756 24.0927,-10.1853 48.7185,-19.1899 73.8347,-26.9988 25.1736,-7.8266 50.8386,-14.4471 76.9883,-19.7964 26.1727,-5.3542 52.8585,-9.4579 79.9384,-12.2075 27.0531,-2.747 54.5917,-4.1505 82.6037,-4.1505 28.0316,0 55.6031,1.4131 82.7462,4.1709 27.1721,2.7607 53.867,6.8529 80.0198,12.2074 26.1969,5.3635 51.8998,11.9835 77.0696,19.8168 25.1253,7.8195 49.7581,16.8611 73.8551,27.0598 24.107,10.2027 47.5741,21.5231 70.3352,33.896 22.7762,12.381 44.9427,25.881 66.4289,40.4067 21.4506,14.5016 42.1792,30.0019 62.0952,46.4493 19.9328,16.4615 39.0589,33.8585 57.3139,52.1258 18.2924,18.3045 35.6736,37.4555 52.0851,57.3546 16.4461,19.941 31.9505,40.6714 46.429,62.1156 14.4467,21.3966 27.9046,43.5716 40.3252,66.4492 12.4051,22.8482 23.7249,46.3244 33.8757,70.3352 10.1488,24.0065 19.1621,48.6284 26.9988,73.8347 7.8266,25.1735 14.4471,50.8593 19.7964,77.0086 5.3541,26.173 9.4579,52.8381 12.2075,79.9181 2.747,27.0541 4.1505,54.5917 4.1505,82.6037 0,17.5969 -0.4236,34.7819 -1.2411,51.6171 -0.8211,16.9048 -2.0273,33.3412 -3.6012,49.2774 -0.6194,6.2711 -2.0016,16.4035 -3.9878,31.3121 l -39.3486,295.4202 h 101.7287 c -0.662,8.4476 -1.3214,16.8979 -1.9736,25.3508 0.6653,-8.5019 1.5667,-16.8396 2.2177,-25.3508 h 632.1219 l 0.1424,-1.3225 h 38.7586 v 161.83 l 1041.702,-520.8509 -1041.702,-520.851 v 163.1932 h -29.8065 c -1.1114,-5.7672 -1.9367,-11.6306 -3.1129,-17.3753 -5.104,-24.9289 -10.827,-49.6085 -17.1108,-74.0178 -6.3087,-24.5061 -13.194,-48.7188 -20.6305,-72.614 -7.4184,-23.8373 -15.4191,-47.5537 -24.0487,-71.1083 -8.6017,-23.4787 -17.7633,-46.6286 -27.4261,-69.4604 -9.7033,-22.9271 -19.9242,-45.504 -30.6406,-67.731 -10.7077,-22.2086 -21.9689,-44.1817 -33.774,-65.8998 -11.7349,-21.5889 -23.9927,-42.9552 -36.8054,-64.0281 -12.812,-21.0712 -26.0748,-41.715 -39.7556,-61.9527 -13.7313,-20.3129 -27.9535,-40.276 -42.6243,-59.8776 -14.6711,-19.6018 -29.7743,-38.8259 -45.31,-57.6394 -31.096,-37.6572 -63.9855,-73.8115 -98.5344,-108.3411 -34.5182,-34.4986 -70.6869,-67.3643 -108.4021,-98.4734 -18.9396,-15.6219 -38.1875,-30.736 -57.7209,-45.3303 -19.5329,-14.5937 -39.4709,-28.7638 -59.8165,-42.5023 -20.2989,-13.7072 -40.9575,-26.9493 -61.9324,-39.6945 -20.9745,-12.745 -42.3208,-25.0185 -64.0281,-36.8055 -21.664,-11.7636 -43.6214,-23.0123 -65.8795,-33.7332 -22.3341,-10.7576 -44.9247,-20.9571 -67.7309,-30.6 -22.8448,-9.6591 -45.9842,-18.7869 -69.4197,-27.365 -23.4613,-8.5877 -47.148,-16.5967 -71.0473,-24.0283 -23.8886,-7.4281 -48.1082,-14.3117 -72.5936,-20.6103 -24.3543,-6.2647 -48.997,-11.9676 -73.9365,-17.07 -24.9208,-5.0988 -50.0219,-9.5725 -75.2589,-13.4282 -25.3894,-3.8791 -50.8617,-7.1118 -76.3982,-9.7049 -25.5151,-2.5912 -51.3195,-4.5774 -77.4156,-5.9003 -25.9586,-1.3158 -52.0719,-1.9736 -78.3311,-1.9736 z" /><path
     style="font-size:852.112px;line-height:0.7;font-family:UFF;-inkscape-font-specification:UFF;fill:#6d6e71;stroke-width:14.7662"
     d="m 320.64252,1725.7753 q -5.32995,-60.0943 12.79615,-114.7503 19.18562,-56.8385 53.55497,-97.8978 36.70898,-42.9377 86.94391,-69.9492 51.85593,-27.5729 110.7069,-32.7926 60.09429,-5.33 114.75031,12.7961 56.83851,19.1857 97.89786,53.555 41.54731,35.1615 69.53471,86.9807 27.9874,51.8191 33.20707,110.6701 l 4.2272,47.661 -170.41621,0.077 -2.9039,-32.741 q -4.44775,-50.1477 -42.79989,-82.2509 -38.35214,-32.1033 -88.49979,-27.6555 -50.14765,4.4477 -82.25089,42.7999 -32.10324,38.3521 -27.65549,88.4998 l 5.32995,60.0943 413.49693,-0.3341 15.03413,169.5073 -583.87639,0.826 z m 219.55959,-649.6776 401.8365,102.9797 -38.63027,150.739 -401.8365,-102.9796 z m -198.56715,29.0027 q 7.85,-30.6315 35.29539,-47.2213 27.14563,-17.0963 56.56796,-9.5561 31.43756,8.0566 46.1155,34.5824 14.78122,26.1229 6.31149,59.1726 -8.46974,33.0498 -34.09637,49.2467 -25.52334,15.7939 -56.96089,7.7373 -29.42234,-7.5401 -45.10283,-35.1819 -15.98025,-28.1482 -8.13025,-58.7797 z m 408.08838,-430.7027 139.60243,90.60619 q -16.51224,8.6279 -23.76073,19.7961 -23.10458,35.59862 31.34037,70.93503 L 1061.9853,962.87684 977.2685,1093.4051 787.06018,969.95418 q -75.38531,-48.92734 -93.32926,-119.10404 -18.29296,-70.40322 26.33059,-139.15741 9.96668,-15.35627 29.66183,-37.29503 z M 1387.6089,493.62241 1184.5445,613.70247 q -13.7624,-12.64679 -21.3866,-25.53977 -10.589,-17.90693 -14.3081,-38.90964 l 68.0463,-40.23846 q -30.6705,-35.51774 -68.275,-13.28069 -25.0697,14.82469 -28.1209,45.63138 -3.263,30.44855 16.4327,63.75543 20.5428,34.73942 48.2915,47.33291 28.1068,12.38171 52.8184,-2.23121 20.0557,-11.85976 26.8192,-42.92814 l 130.4995,46.574 q -28.5842,73.45762 -93.7654,112.00184 -79.5067,47.01547 -165.1411,25.63184 -85.6343,-21.38364 -132.2262,-100.17409 -46.38015,-78.43232 -23.9221,-164.702 22.8162,-86.48146 102.3229,-133.49693 77.7161,-45.95657 161.7061,-24.08395 84.1363,21.30271 129.8811,98.66061 4.6592,7.87904 13.3921,25.91681 z m 269.9221,-412.369765 10.0504,158.620775 69.7599,-4.42005 10.3924,164.01887 -69.7599,4.42005 q 3.1309,49.41328 19.6786,67.12551 16.963,17.68592 58.4867,15.05494 l 10.3398,163.18839 q -12.0156,1.17822 -17.8289,1.54656 -52.7352,3.34135 -101.2093,-18.18466 -48.0589,-21.55232 -78.9524,-61.70225 -39.1044,-51.30301 -44.7084,-139.74863 L 1502.2322,91.092522 Z m 538.1284,246.777005 q 80.946,35.04577 113.3084,118.42617 32.9096,83.1639 -2.3015,164.49171 -35.707,82.47327 -119.6345,115.05224 -83.5457,32.74428 -166.4008,-3.12803 -82.8551,-35.87232 -116.5283,-119.36684 -33.508,-83.87633 2.0337,-165.96778 36.203,-83.61873 119.6346,-115.05224 83.5969,-31.81534 169.8884,5.54477 z m -64.8177,139.23873 q -22.9093,-9.91861 -46.2194,-0.0615 -23.1448,9.47526 -33.5593,33.52997 -10.2493,23.67288 -1.4864,47.41602 9.1446,23.90845 31.672,33.66175 22.9093,9.91861 46.2194,0.0615 23.6919,-9.69177 33.9412,-33.36465 10.4145,-24.0547 1.4864,-47.41602 -8.7628,-23.74314 -32.0539,-33.82707 z m 902.3364,637.61982 45.5129,148.8058 -330.6352,101.1262 q -91.1136,27.8676 -163.0109,-2.3539 -41.4205,-17.353 -73.9375,-53.9628 -32.3953,-36.212 -46.0248,-80.7741 -27.1374,-88.7264 13.9251,-167.8553 41.0625,-79.12894 127.7996,-105.65786 83.9518,-25.67706 163.722,16.05951 79.7702,41.73655 105.0822,124.49485 4.0158,13.1299 9.7819,40.5178 l -163.925,50.1372 q 8.7257,-22.6832 3.1279,-40.9856 -7.0582,-23.0768 -29.2779,-34.5548 -21.7002,-11.2019 -45.5728,-3.9003 -23.0768,7.0581 -34.5548,29.2779 -11.0802,22.098 -3.7787,45.9706 17.5237,57.2942 96.7011,33.0774 z m -378.752,659.8966 -158.4768,-28.5004 q 0.1116,-19.4262 2.9101,-34.9872 16.57,-92.1377 88.2228,-142.6635 71.6529,-50.5257 162.9716,-34.103 88.8617,15.9809 139.576,88.9359 50.6406,73.3644 34.6597,162.2261 -17.8219,99.0992 -86.2077,145.5623 -68.0498,46.9463 -168.3775,28.9033 l -200.246,-36.0121 27.5431,-153.1534 189.1894,34.0238 q 32.3506,5.8179 54.4692,-6.6913 22.0451,-12.0997 26.832,-38.7173 4.345,-24.1606 -10.0968,-44.9358 -14.4418,-20.7753 -38.6024,-25.1203 -25.389,-4.566 -44.6412,8.4588 -19.2522,13.0247 -23.6709,37.5948 -3.6085,20.0655 3.9454,39.1793 z"
     id="text848-9-2"
     transform="matrix(1.0488066,0,0,0.99788844,-82.327922,-13.838547)"
     aria-label="Direto da" /><path
     sodipodi:nodetypes="cccccccccccccccccccccccccccccccsscccccccccccccc"
     id="path22-9"
     style="clip-rule:evenodd;fill:#005baa;fill-opacity:1;fill-rule:evenodd;stroke:none;stroke-width:20.0034;image-rendering:optimizeQuality;shape-rendering:geometricPrecision;text-rendering:geometricPrecision"
     d="m 1841.1296,1411.9712 h 131.9432 v -69.4722 h -0.4402 c 0,-109.1527 -87.6399,-195.6143 -196.9145,-195.6143 -109.2794,0 -196.9148,87.7521 -196.9148,196.9144 0.2683,44.1619 0.1197,89.0539 0.1197,133.4436 h -198.9299 l -0.1239,269.3725 c 0,36.0107 -29.4724,63.3312 -65.4915,63.3312 -35.6177,0 -65.1113,-27.3665 -65.1113,-63.3312 -0.035,-94.0741 -0.021,-188.8361 -0.021,-269.3725 -108.9271,-0.074 -217.5801,0 -326.63759,0 v 131.4682 h 195.37349 v 137.9043 h -0.021 c 0,108.3598 87.6323,196.8946 196.7946,196.8946 109.1974,0 197.92,-87.6546 197.92,-196.8946 0,-73.1603 0,-137.7242 0,-137.7242 h 66.2516 v 334.6188 h 130.983 V 1608.891 h 263.2264 v 334.6188 h 131.8033 V 1608.891 h 394.8089 v -131.6433 h -394.8097 v -132.2233 c 0,-35.9865 29.4424,-65.5315 65.4917,-65.5315 36.0799,0 65.3764,29.8108 65.3764,65.8314 0,21.8345 0,44.1895 0,66.2117 h 131.6783 v -66.2515 c 0,-109.2538 -87.9842,-198.3411 -197.1664,-198.3411 -109.2599,0 -196.5429,86.4112 -196.5429,195.5605 v 0.1201 h -0.6403 v 134.6236 H 1709.909 v -132.9284 c 0,-35.8258 30.0251,-65.8466 65.8714,-65.8466 35.8607,0 65.437,30.0208 65.3815,65.8466 0,0.9602 -0.031,67.6568 -0.031,67.6568 z"
     inkscape:connector-curvature="0" /></g></svg>
